{
  "accessors": [
    {
      "bufferView": 2,
      "componentType": 5126,
      "count": 948,
      "max": [
        30.241851806640625,
        54.936439514160156,
        67.04647827148438
      ],
      "min": [
        -30.241851806640625,
        -36.104793548583984,
        -45.273258209228516
      ],
      "type": "VEC3"
    },
    {
      "bufferView": 2,
      "byteOffset": 11376,
      "componentType": 5126,
      "count": 948,
      "max": [
        0.9977094531059265,
        0.9999301433563232,
        0.9983698129653931
      ],
      "min": [
        -0.9977094531059265,
        -0.9636687636375427,
        -0.9999967217445374
      ],
      "type": "VEC3"
    },
    {
      "bufferView": 1,
      "componentType": 5126,
      "count": 948,
      "max": [
        1.0,
        1.0
      ],
      "min": [
        0.0,
        -0.05375966802239418
      ],
      "type": "VEC2"
    },
    {
      "bufferView": 0,
      "componentType": 5125,
      "count": 948,
      "type": "SCALAR"
    },
    {
      "bufferView": 2,
      "byteOffset": 22752,
      "componentType": 5126,
      "count": 123,
      "max": [
        23.94137954711914,
        -14.386285781860352,
        68.7818603515625
      ],
      "min": [
        -23.94137954711914,
        -39.5850715637207,
        31.33155059814453
      ],
      "type": "VEC3"
    },
    {
      "bufferView": 2,
      "byteOffset": 24228,
      "componentType": 5126,
      "count": 123,
      "max": [
        0.9012702107429504,
        0.9270761609077454,
        0.9998247027397156
      ],
      "min": [
        -0.9012702107429504,
        -0.9943131804466248,
        -0.8605104684829712
      ],
      "type": "VEC3"
    },
    {
      "bufferView": 1,
      "byteOffset": 7584,
      "componentType": 5126,
      "count": 123,
      "max": [
        1.0,
        1.0
      ],
      "min": [
        0.25,
        0.0
      ],
      "type": "VEC2"
    },
    {
      "bufferView": 0,
      "byteOffset": 3792,
      "componentType": 5125,
      "count": 123,
      "type": "SCALAR"
    },
    {
      "bufferView": 2,
      "byteOffset": 25704,
      "componentType": 5126,
      "count": 96,
      "max": [
        23.94137954711914,
        -12.84713363647461,
        68.7818603515625
      ],
      "min": [
        -23.94137954711914,
        -39.53947067260742,
        30.1970272064209
      ],
      "type": "VEC3"
    },
    {
      "bufferView": 2,
      "byteOffset": 26856,
      "componentType": 5126,
      "count": 96,
      "max": [
        0.9139769673347473,
        0.9437622427940369,
        0.9213076829910278
      ],
      "min": [
        -0.9139769673347473,
        -0.975449800491333,
        -0.9806182980537415
      ],
      "type": "VEC3"
    },
    {
      "bufferView": 1,
      "byteOffset": 8568,
      "componentType": 5126,
      "count": 96,
      "max": [
        1.0,
        1.0
      ],
      "min": [
        0.0,
        0.0
      ],
      "type": "VEC2"
    },
    {
      "bufferView": 0,
      "byteOffset": 4284,
      "componentType": 5125,
      "count": 96,
      "type": "SCALAR"
    },
    {
      "bufferView": 2,
      "byteOffset": 28008,
      "componentType": 5126,
      "count": 3,
      "max": [
        23.94137954711914,
        -14.386285781860352,
        68.7818603515625
      ],
      "min": [
        15.24711799621582,
        -19.214189529418945,
        54.52022933959961
      ],
      "type": "VEC3"
    },
    {
      "bufferView": 2,
      "byteOffset": 28044,
      "componentType": 5126,
      "count": 3,
      "max": [
        0.34344810247421265,
        0.9270761609077454,
        -0.1502443552017212
      ],
      "min": [
        0.34344807267189026,
        0.9270761013031006,
        -0.15024437010288239
      ],
      "type": "VEC3"
    },
    {
      "bufferView": 1,
      "byteOffset": 9336,
      "componentType": 5126,
      "count": 3,
      "max": [
        0.5,
        1.0
      ],
      "min": [
        0.5,
        0.5
      ],
      "type": "VEC2"
    },
    {
      "bufferView": 0,
      "byteOffset": 4668,
      "componentType": 5125,
      "count": 3,
      "type": "SCALAR"
    },
    {
      "bufferView": 2,
      "byteOffset": 28080,
      "componentType": 5126,
      "count": 301,
      "max": [
        68.46569061279297,
        77.2042236328125,
        -44.74323272705078
      ],
      "min": [
        -66.33687591552734,
        -57.913307189941406,
        -60.114776611328125
      ],
      "type": "VEC3"
    },
    {
      "bufferView": 2,
      "byteOffset": 31692,
      "componentType": 5126,
      "count": 301,
      "max": [
        1.0,
        0.9976688027381897,
        1.0
      ],
      "min": [
        -0.9906861186027527,
        -0.9976687431335449,
        -1.0
      ],
      "type": "VEC3"
    },
    {
      "bufferView": 1,
      "byteOffset": 9360,
      "componentType": 5126,
      "count": 301,
      "max": [
        1.0109139680862427,
        1.0
      ],
      "min": [
        0.0011655986309051514,
        0.00465703010559082
      ],
      "type": "VEC2"
    },
    {
      "bufferView": 0,
      "byteOffset": 4680,
      "componentType": 5125,
      "count": 1092,
      "type": "SCALAR"
    }
  ],
  "asset": {
    "extras": {
      "author": "Jonathon.Lai (https://sketchfab.com/Jonathon.Lai)",
      "license": "CC-BY-4.0 (http://creativecommons.org/licenses/by/4.0/)",
      "source": "https://sketchfab.com/3d-models/pug-6a431b6ac7f0411a9ce275188572f3d0",
      "title": "Pug"
    },
    "generator": "Sketchfab-12.67.0",
    "version": "2.0"
  },
  "bufferViews": [
    {
      "buffer": 0,
      "byteLength": 9048,
      "name": "floatBufferViews",
      "target": 34963
    },
    {
      "buffer": 0,
      "byteLength": 11768,
      "byteOffset": 9048,
      "byteStride": 8,
      "name": "floatBufferViews",
      "target": 34962
    },
    {
      "buffer": 0,
      "byteLength": 35304,
      "byteOffset": 20816,
      "byteStride": 12,
      "name": "floatBufferViews",
      "target": 34962
    }
  ],
  "buffers": [
    {
      "byteLength": 56120,
      "uri": "scene.bin"
    }
  ],
  "materials": [
    {
      "doubleSided": true,
      "name": "01_-_Default",
      "pbrMetallicRoughness": {
        "baseColorFactor": [
          0.627451,
          0.431373,
          0.337255,
          1.0
        ],
        "metallicFactor": 0.0,
        "roughnessFactor": 0.6
      }
    },
    {
      "doubleSided": true,
      "name": "03_-_Default",
      "pbrMetallicRoughness": {
        "baseColorFactor": [
          0.0313726,
          0.0313726,
          0.0313726,
          1.0
        ],
        "metallicFactor": 0.0,
        "roughnessFactor": 0.6
      }
    },
    {
      "doubleSided": true,
      "name": "02_-_Default",
      "pbrMetallicRoughness": {
        "baseColorFactor": [
          0.0901961,
          0.0901961,
          0.0901961,
          1.0
        ],
        "metallicFactor": 0.0,
        "roughnessFactor": 0.6
      }
    },
    {
      "doubleSided": true,
      "name": "Material_0",
      "pbrMetallicRoughness": {
        "baseColorFactor": [
          0.588,
          0.588,
          0.588,
          1.0
        ],
        "metallicFactor": 0.0,
        "roughnessFactor": 0.6
      }
    },
    {
      "doubleSided": true,
      "name": "07_-_Default",
      "pbrMetallicRoughness": {
        "baseColorFactor": [
          0.4467292081,
          0.0245512768,
          0.0245512768,
          1.0
        ],
        "metallicFactor": 0.0,
        "roughnessFactor": 0.6
      }
    }
  ],
  "meshes": [
    {
      "name": "Box001_01 - Default_0",
      "primitives": [
        {
          "attributes": {
            "NORMAL": 1,
            "POSITION": 0,
            "TEXCOORD_0": 2
          },
          "indices": 3,
          "material": 0,
          "mode": 4
        }
      ]
    },
    {
      "name": "Box001_03 - Default_0",
      "primitives": [
        {
          "attributes": {
            "NORMAL": 5,
            "POSITION": 4,
            "TEXCOORD_0": 6
          },
          "indices": 7,
          "material": 1,
          "mode": 4
        }
      ]
    },
    {
      "name": "Box001_02 - Default_0",
      "primitives": [
        {
          "attributes": {
            "NORMAL": 9,
            "POSITION": 8,
            "TEXCOORD_0": 10
          },
          "indices": 11,
          "material": 2,
          "mode": 4
        }
      ]
    },
    {
      "name": "Box001_Material #0_0",
      "primitives": [
        {
          "attributes": {
            "NORMAL": 13,
            "POSITION": 12,
            "TEXCOORD_0": 14
          },
          "indices": 15,
          "material": 3,
          "mode": 4
        }
      ]
    },
    {
      "name": "Object001_07 - Default_0",
      "primitives": [
        {
          "attributes": {
            "NORMAL": 17,
            "POSITION": 16,
            "TEXCOORD_0": 18
          },
          "indices": 19,
          "material": 4,
          "mode": 4
        }
      ]
    }
  ],
  "nodes": [
    {
      "children": [
        1
      ],
      "matrix": [
        1.0,
        0.0,
        0.0,
        0.0,
        0.0,
        2.220446049250313e-16,
        -1.0,
        0.0,
        0.0,
        1.0,
        2.220446049250313e-16,
        0.0,
        0.0,
        0.0,
        0.0,
        1.0
      ],
      "name": "Sketchfab_model"
    },
    {
      "children": [
        2
      ],
      "matrix": [
        1.0,
        0.0,
        0.0,
        0.0,
        0.0,
        0.0,
        1.0,
        0.0,
        0.0,
        -1.0,
        0.0,
        0.0,
        0.0,
        0.0,
        0.0,
        1.0
      ],
      "name": "4bf296f4ff2e4172b5d4955c67c35732.fbx"
    },
    {
      "children": [
        3,
        9
      ],
      "name": "RootNode"
    },
    {
      "children": [
        4
      ],
      "matrix": [
        1.0,
        0.0,
        0.0,
        0.0,
        0.0,
        2.220446049250313e-16,
        -1.0,
        0.0,
        0.0,
        1.0,
        2.220446049250313e-16,
        0.0,
        8.502975463867188,
        19.519386291503906,
        0.0,
        1.0
      ],
      "name": "Box001"
    },
    {
      "children": [
        5,
        6,
        7,
        8
      ],
      "matrix": [
        1.0,
        0.0,
        -0.0,
        0.0,
        0.0,
        1.0,
        0.0,
        0.0,
        0.0,
        0.0,
        1.0,
        0.0,
        -1.0644073486328125,
        -9.645458221435547,
        45.273258209228516,
        1.0
      ],
      "name": "Object_4"
    },
    {
      "mesh": 0,
      "name": "Box001_01 - Default_0"
    },
    {
      "mesh": 1,
      "name": "Box001_03 - Default_0"
    },
    {
      "mesh": 2,
      "name": "Box001_02 - Default_0"
    },
    {
      "mesh": 3,
      "name": "Box001_Material #0_0"
    },
    {
      "children": [
        10
      ],
      "matrix": [
        1.0,
        0.0,
        0.0,
        0.0,
        0.0,
        2.220446049250313e-16,
        -1.0,
        0.0,
        0.0,
        1.0,
        2.220446049250313e-16,
        0.0,
        6.2696685791015625,
        0.11627197265625,
        0.0,
        1.0
      ],
      "name": "Object001"
    },
    {
      "children": [
        11
      ],
      "matrix": [
        1.0,
        0.0,
        -0.0,
        0.0,
        0.0,
        1.0,
        0.0,
        0.0,
        0.0,
        0.0,
        1.0,
        0.0,
        -1.0644073486328125,
        -9.645458221435547,
        64.7369613647461,
        1.0
      ],
      "name": "Object_10"
    },
    {
      "mesh": 4,
      "name": "Object001_07 - Default_0"
    }
  ],
  "scene": 0,
  "scenes": [
    {
      "name": "Sketchfab_Scene",
      "nodes": [
        0
      ]
    }
  ]
}
